<?xml version="1.0" encoding="utf-8"?>
<!-- Generator: Adobe Illustrator 21.1.0, SVG Export Plug-In . SVG Version: 6.00 Build 0)  -->
<svg version="1.1" id="Layer_1" xmlns="http://www.w3.org/2000/svg" xmlns:xlink="http://www.w3.org/1999/xlink" x="0px" y="0px"
	 viewBox="0 0 800 512" style="enable-background:new 0 0 800 512;" xml:space="preserve">
<path d="M299,0c35.3,0,64,28.7,64,64s-28.7,64-64,64s-64-28.7-64-64S263.7,0,299,0 M347,144h-11.4c-22.7,10.4-49.6,10.9-73.3,0H251
	c-26.5,0-48,21.5-48,48v136c0,13.3,10.7,24,24,24h16v136c0,13.3,10.7,24,24,24h64c13.3,0,24-10.7,24-24V352h16c13.3,0,24-10.7,24-24
	V192C395,165.5,373.5,144,347,144z"/>
<path d="M96,0c35.3,0,64,28.7,64,64s-28.7,64-64,64S32,99.3,32,64S60.7,0,96,0 M144,144h-11.4c-22.7,10.4-49.6,10.9-73.3,0H48
	c-26.5,0-48,21.5-48,48v136c0,13.3,10.7,24,24,24h16v136c0,13.3,10.7,24,24,24h64c13.3,0,24-10.7,24-24V352h16c13.3,0,24-10.7,24-24
	V192C192,165.5,170.5,144,144,144z"/>
<path d="M705,0c35.3,0,64,28.7,64,64s-28.7,64-64,64s-64-28.7-64-64S669.7,0,705,0 M753,144h-11.4c-22.7,10.4-49.6,10.9-73.3,0H657
	c-26.5,0-48,21.5-48,48v136c0,13.3,10.7,24,24,24h16v136c0,13.3,10.7,24,24,24h64c13.3,0,24-10.7,24-24V352h16c13.3,0,24-10.7,24-24
	V192C801,165.5,779.5,144,753,144z"/>
<path d="M502,0c35.3,0,64,28.7,64,64s-28.7,64-64,64s-64-28.7-64-64S466.7,0,502,0 M550,144h-11.4c-22.7,10.4-49.6,10.9-73.3,0H454
	c-26.5,0-48,21.5-48,48v136c0,13.3,10.7,24,24,24h16v136c0,13.3,10.7,24,24,24h64c13.3,0,24-10.7,24-24V352h16c13.3,0,24-10.7,24-24
	V192C598,165.5,576.5,144,550,144z"/>
</svg>
