<?xml version="1.0" encoding="utf-8"?>
<!-- Generator: Adobe Illustrator 21.1.0, SVG Export Plug-In . SVG Version: 6.00 Build 0)  -->
<svg version="1.1" id="Layer_1" xmlns="http://www.w3.org/2000/svg" xmlns:xlink="http://www.w3.org/1999/xlink" x="0px" y="0px"
	 viewBox="0 0 400 512" style="enable-background:new 0 0 400 512;" xml:space="preserve">
<path d="M97,0c35.3,0,64,28.7,64,64s-28.7,64-64,64S33,99.3,33,64S61.7,0,97,0 M145,144h-11.4c-22.7,10.4-49.6,10.9-73.3,0H49
	c-26.5,0-48,21.5-48,48v136c0,13.3,10.7,24,24,24h16v136c0,13.3,10.7,24,24,24h64c13.3,0,24-10.7,24-24V352h16c13.3,0,24-10.7,24-24
	V192C193,165.5,171.5,144,145,144z"/>
<path d="M303,0c35.3,0,64,28.7,64,64s-28.7,64-64,64s-64-28.7-64-64S267.7,0,303,0 M351,144h-11.4c-22.7,10.4-49.6,10.9-73.3,0H255
	c-26.5,0-48,21.5-48,48v136c0,13.3,10.7,24,24,24h16v136c0,13.3,10.7,24,24,24h64c13.3,0,24-10.7,24-24V352h16c13.3,0,24-10.7,24-24
	V192C399,165.5,377.5,144,351,144z"/>
</svg>
